<svg xmlns="http://www.w3.org/2000/svg" width="108.887" height="109.395" viewBox="0 0 108.887 109.395">
  <g id="그룹_10" data-name="그룹 10" transform="translate(-3416.478 1355.946)">
    <g id="그룹_9" data-name="그룹 9" transform="translate(293.439 184.258)">
      <path id="패스_1" data-name="패스 1" d="M0,0H7.8V2.183L3.9,3.274,0,2.183Z" transform="translate(3124.406 -1463.094) rotate(-30)" fill="#bcddfe"/>
      <path id="패스_2" data-name="패스 2" d="M7.8,0H0V2.183H7.8Z" transform="translate(3125.498 -1461.204) rotate(-30)" fill="#acd1fe"/>
      <g id="그룹_1" data-name="그룹 1" transform="translate(3170.654 -1501.892) rotate(-30)">
        <path id="패스_3" data-name="패스 3" d="M0,0A12.838,12.838,0,0,1,7.35,4a12.838,12.838,0,0,1,3.381,8.663L0,16.911Z" transform="translate(0 0)" fill="#fb6867"/>
        <path id="패스_4" data-name="패스 4" d="M10.731,0c0,.011,0,.022,0,.034A12.839,12.839,0,0,1,7.35,8.73a12.838,12.838,0,0,1-7.35,4V0Z" transform="translate(0 12.658)" fill="#e2336c"/>
      </g>
      <g id="그룹_2" data-name="그룹 2" transform="translate(3146.085 -1452.885) rotate(-30)">
        <path id="패스_5" data-name="패스 5" d="M7.023,25.491H20.3L13.282,0H0Z" transform="translate(0 0)" fill="#537983"/>
      </g>
      <g id="그룹_3" data-name="그룹 3" transform="translate(3139.92 -1459.265) rotate(-30)">
        <path id="패스_6" data-name="패스 6" d="M0,12.973H18.947V0H0Z" transform="translate(0 0)" fill="#acd1fe"/>
      </g>
      <g id="그룹_4" data-name="그룹 4" transform="translate(3119.777 -1482.345) rotate(-30)">
        <path id="패스_7" data-name="패스 7" d="M15.229,0l.034,21.169L8.224,25.422,0,21.169,2.643,6.3A22.107,22.107,0,0,0,15.229,0Z" transform="translate(35.705 0)" fill="#edf6ff"/>
        <path id="패스_8" data-name="패스 8" d="M15.3,21.237a22.108,22.108,0,0,0-12.654-6.31L0,0H15.262Z" transform="translate(35.705 21.169)" fill="#d7e9fe"/>
        <path id="패스_9" data-name="패스 9" d="M0,7.245,28.262,0h.023l2.705,14.645-16.568,3L0,14.645Z" transform="translate(0 6.524)" fill="#edf6ff"/>
        <path id="패스_10" data-name="패스 10" d="M30.991,0,28.286,14.712H5.879L0,8.833V0Z" transform="translate(0 21.169)" fill="#d7e9fe"/>
      </g>
      <path id="패스_11" data-name="패스 11" d="M6.9.223A22.616,22.616,0,0,0,10.062,0V14.868l-5.031,3L0,14.868V.223Z" transform="translate(3147.423 -1491.031) rotate(-30)" fill="#edf6ff"/>
      <path id="패스_12" data-name="패스 12" d="M4.365,0V25.381l-2.182,3L0,25.381V0Z" transform="translate(3161.285 -1511.173) rotate(-30)" fill="#d7e9fe"/>
      <path id="패스_13" data-name="패스 13" d="M10.062,14.926a22.607,22.607,0,0,0-3.1-.214H0V0H10.062Z" transform="translate(3154.857 -1478.155) rotate(-30)" fill="#d7e9fe"/>
      <path id="패스_14" data-name="패스 14" d="M4.365,0H0V25.381H4.365Z" transform="translate(3173.976 -1489.193) rotate(-30)" fill="#bcddfe"/>
    </g>
    <path id="패스_25" data-name="패스 25" d="M3.749,22.911,6.665,13.33,0,15.413,8.748,0,5.416,11.455l6.249-.833Z" transform="translate(3493.45 -1355.946) rotate(25)" fill="#6189cb"/>
    <path id="패스_26" data-name="패스 26" d="M3.749,22.911,6.665,13.33,0,15.413,8.748,0,5.415,11.455l6.249-.833Z" transform="translate(3510.503 -1339.536) rotate(47)" fill="#6189cb"/>
    <path id="패스_27" data-name="패스 27" d="M3.749,22.911,6.665,13.33,0,15.413,8.748,0,5.415,11.455l6.249-.833Z" transform="translate(3522.94 -1318.222) rotate(78)" fill="#6189cb"/>
  </g>
</svg>
