<svg xmlns="http://www.w3.org/2000/svg" width="511.998" height="471.744" viewBox="0 0 511.998 471.744">
  <g id="그룹_233" data-name="그룹 233" transform="translate(-6417 16661)">
    <g id="그룹_232" data-name="그룹 232" transform="translate(71 373)">
      <path id="패스_616" data-name="패스 616" d="M352.116,43.17c-42.621,18.92-90.712,62.7-108.407,93.315l-16.652-16.652-2.937-2.947L191.1,83.836l.02-.02C203.2,71.722,211.986,62.941,212.938,62,248.814,26.122,305.626,15.863,352.116,43.17Z" transform="translate(6346 -17054.127)" fill="#dae0e9"/>
      <g id="그룹_230" data-name="그룹 230" transform="translate(6346 -17054.127)">
        <path id="패스_617" data-name="패스 617" d="M352.116,43.17c-42.621,18.92-90.712,62.7-108.407,93.315l-16.652-16.652-2.937-2.947c2.147-4.639,3.505-7.576,3.778-8.164C249.25,62.7,299.062,33.516,352.116,43.17Z" fill="#dae0e9"/>
        <path id="패스_618" data-name="패스 618" d="M99.8,152.36l76.062,76.062-1.768,2.653c-10.436-5.2-25.126-2.019-35.762,8.617-10.569,10.569-13.773,25.15-8.692,35.57l-1.134.518L52.444,199.718l.567-1.235c10.4,4.9,24.817,1.66,35.294-8.817,10.652-10.652,13.831-25.393,8.584-35.829Z" fill="#dae0e9"/>
      </g>
      <path id="패스_619" data-name="패스 619" d="M53.011,198.483l-.567,1.235,76.062,76.062,1.134-.518a21,21,0,0,0,3.838,5.489L93.895,320.334l-86.3-86.3L47.18,194.453A20.717,20.717,0,0,0,53.011,198.483Z" transform="translate(6346 -17054.127)" fill="#dae0e9"/>
      <path id="패스_620" data-name="패스 620" d="M110.44,255.912l-.8,1,22.377,22.377.917-.735a2.834,2.834,0,0,0,.546,2.2L93.894,320.334,68.506,294.946l39.583-39.583A2.863,2.863,0,0,0,110.44,255.912Z" transform="translate(6346 -17054.127)" fill="#dae0e9"/>
      <path id="패스_621" data-name="패스 621" d="M163.4,78.233a15.637,15.637,0,0,1,22.127.011l5.576,5.587,35.954,36,16.65,16.65,5.96,5.96a15.637,15.637,0,0,1,0,22.116l-6.769,6.769-.008-.008-46.631,46.631.008.008L179.4,234.827a21.166,21.166,0,0,0-5.3-3.754l1.768-2.653L99.8,152.36l-2.911,1.477a20.95,20.95,0,0,0-3.787-5.3Z" transform="translate(6346 -17054.127)" fill="#dae0e9"/>
      <path id="패스_622" data-name="패스 622" d="M373.339,276.011l36.922-36.924a86.7,86.7,0,0,0,22.124.9,7.617,7.617,0,0,0,6.852-8.963h0a7.635,7.635,0,0,0-8.23-6.169,71.836,71.836,0,0,1-21.643-1.41,7.607,7.607,0,0,0-6.994,2.049l-39.775,39.776L312.45,215.12l39.771-39.77a7.6,7.6,0,0,0,2.049-6.993A72.074,72.074,0,0,1,429.7,81.06l-46.587,46.586a7.6,7.6,0,0,0-2.011,7.162l10.969,45.235a7.6,7.6,0,0,0,5.592,5.592L442.9,196.6a7.606,7.606,0,0,0,7.162-2.011l46.585-46.586a72.238,72.238,0,0,1-35.313,67.158,7.572,7.572,0,0,0-2.988,9.724h0a7.613,7.613,0,0,0,10.785,3.315,87.472,87.472,0,0,0,39.9-97.952,7.6,7.6,0,0,0-12.71-3.408l-53.988,53.989-36.589-8.873-8.873-36.589,53.989-53.988a7.6,7.6,0,0,0-3.408-12.71,87.31,87.31,0,0,0-108.83,98.784L301.7,204.376l-5.8-5.8a15.032,15.032,0,0,0-17.653-2.638l-24.608-24.608,1.021-1.021a23.929,23.929,0,0,0,7.138-15.367,23.118,23.118,0,0,0-6.762-17.868l-1.7-1.7C271.843,107.189,315.115,67.9,355.2,50.112a7.6,7.6,0,0,0,4.4-8.246,7.779,7.779,0,0,0-3.8-5.341c-47.6-27.861-108.536-19.608-148.247,20.1L191.1,73.08l-.219-.22a23.209,23.209,0,0,0-16.421-6.807h-.011a23.091,23.091,0,0,0-16.43,6.805l-70.293,70.3a7.665,7.665,0,0,0,0,10.747,13.467,13.467,0,0,1,2.369,3.342c3.853,7.663.839,19.037-7.169,27.045C74.975,192.25,64,195.261,56.2,191.589a13.194,13.194,0,0,1-3.627-2.485,7.674,7.674,0,0,0-10.768-.024L2.225,228.663a7.6,7.6,0,0,0,0,10.743L88.4,325.577a7.905,7.905,0,0,0,2.6,1.783,7.616,7.616,0,0,0,8.271-1.657l39.583-39.583a7.6,7.6,0,0,0,.083-10.659,13.451,13.451,0,0,1-2.463-3.53c-3.789-7.771-.813-18.82,7.236-26.869,7.982-7.983,19.342-11.006,27-7.188a13.62,13.62,0,0,1,3.407,2.411,7.6,7.6,0,0,0,10.656-.085l11.5-11.5,24.608,24.608a15.033,15.033,0,0,0,2.636,17.652h0l5.81,5.809-82,81.988a7.594,7.594,0,0,0,0,10.741l0,0a7.593,7.593,0,0,0,10.741,0l76.952-76.953,5.042-5.038,6.843,6.843L190.19,351.072a18.472,18.472,0,0,0,.009,26.054l10.4,10.39a18.44,18.44,0,0,0,26.046,0l56.709-56.708,6.845,6.845-.014.014-128.6,128.612a35.539,35.539,0,0,1-50.2.051,35.462,35.462,0,0,1,.049-50.2L133,394.568a7.6,7.6,0,0,0,0-10.742l0,0a7.594,7.594,0,0,0-10.74,0l-21.573,21.565a50.654,50.654,0,1,0,71.638,71.634l128.6-128.608.019-.019L423.559,471.012A52.318,52.318,0,0,0,460.6,486.3a51,51,0,0,0,35.927-87.1ZM218.3,67.372c31.263-31.261,77.468-40.324,116.718-24.219C297.2,63.68,260.72,97.918,242.4,124.421L201.847,83.83ZM93.894,309.591,18.34,234.036,47.179,205.2l75.554,75.554Zm39.067-75.271a45.335,45.335,0,0,0-12.453,22.719L71.036,207.567a45.268,45.268,0,0,0,22.642-12.529,44.888,44.888,0,0,0,12.9-25.16l51.554,51.554A44.861,44.861,0,0,0,132.961,234.32Zm47.873-11.669L105.28,147.1,168.771,83.6a7.992,7.992,0,0,1,5.686-2.355h0a7.989,7.989,0,0,1,5.688,2.361l5.576,5.588s0,0,0,0L244.3,147.818a8.038,8.038,0,0,1,0,11.371ZM242.9,182.073l24.142,24.142L249.1,224.159,231.152,242.1,207.01,217.96ZM215.9,376.773a3.231,3.231,0,0,1-4.564,0l-10.393-10.383a3.249,3.249,0,0,1-.007-4.578L257.648,305.1l14.962,14.962Zm269.258,84.68c-14.021,13.368-36.837,12.839-50.858-1.184L234.387,260.353l50.9-50.9,200.49,200.492a36.043,36.043,0,0,1-.621,51.512Z" transform="translate(6346 -17054.127)" fill="#404040"/>
    </g>
  </g>
</svg>
