<svg xmlns="http://www.w3.org/2000/svg" xmlns:xlink="http://www.w3.org/1999/xlink" width="38" height="38" viewBox="0 0 38 38">
  <defs>
    <clipPath id="clip-path">
      <rect id="사각형_44" data-name="사각형 44" width="38" height="38" transform="translate(6888 -4706)" fill="#fff" stroke="#707070" stroke-width="1" opacity="0.5"/>
    </clipPath>
  </defs>
  <g id="마스크_그룹_71" data-name="마스크 그룹 71" transform="translate(-6888 4706)" clip-path="url(#clip-path)">
    <path id="패스_144" data-name="패스 144" d="M16.75,23.27a.557.557,0,0,0,.787,0L22.509,18.3v1.17a.557.557,0,0,0,1.113,0V17.413a.747.747,0,0,0-1.275-.528l-5.6,5.6A.557.557,0,0,0,16.75,23.27ZM19,3.025a.557.557,0,1,0-.557-.557A.557.557,0,0,0,19,3.025ZM14.839,21.277a.746.746,0,0,0,.814-.162l5.6-5.6a.557.557,0,0,0-.787-.787L15.491,19.7v-1.17a.557.557,0,0,0-1.113,0v2.055a.745.745,0,0,0,.461.69ZM7.978,22.512a.75.75,0,0,1,.675.805.557.557,0,1,0,1.113,0A1.859,1.859,0,0,0,7.978,21.4H7.713v-.475a.557.557,0,0,0-1.113,0V21.4H6.336a1.859,1.859,0,0,0-1.788,1.919v.908a1.859,1.859,0,0,0,1.788,1.919H6.6v2.519H6.336a.75.75,0,0,1-.675-.806.557.557,0,0,0-1.113,0,1.859,1.859,0,0,0,1.788,1.919H6.6v.475a.557.557,0,0,0,1.113,0v-.475h.265a1.859,1.859,0,0,0,1.788-1.919V26.95a1.859,1.859,0,0,0-1.788-1.919H7.713V22.512ZM6.6,25.031H6.336a.75.75,0,0,1-.675-.806v-.908a.75.75,0,0,1,.675-.806H6.6Zm1.378,1.113a.75.75,0,0,1,.675.806v.908a.75.75,0,0,1-.675.805H7.713V26.145ZM30.986,5.4V3.525A3.529,3.529,0,0,0,27.461,0H10.539A3.529,3.529,0,0,0,7.014,3.525V18.574a7.014,7.014,0,1,0,0,14.027v1.873A3.529,3.529,0,0,0,10.539,38H27.461a3.529,3.529,0,0,0,3.525-3.525V19.426A7.092,7.092,0,0,0,38,12.412,7.092,7.092,0,0,0,30.986,5.4ZM7.157,31.49a5.9,5.9,0,1,1,0-11.8,5.981,5.981,0,0,1,6.043,5.9,5.777,5.777,0,0,1-.179,1.428.557.557,0,1,0,1.079.275,6.889,6.889,0,0,0,.213-1.7,7.011,7.011,0,0,0-3.96-6.275V3.9a.557.557,0,0,1,.557-.557h2.045a.038.038,0,0,1,.026.011.035.035,0,0,1,.011.026,1.562,1.562,0,0,0,1.56,1.56h2.221a.557.557,0,1,0,0-1.113H14.552a.447.447,0,0,1-.447-.447,1.15,1.15,0,0,0-1.15-1.15H10.91A1.672,1.672,0,0,0,9.24,3.9v14.98a7.221,7.221,0,0,0-1.113-.239V3.525a2.415,2.415,0,0,1,2.412-2.412H27.461a2.415,2.415,0,0,1,2.412,2.412V5.462A7.229,7.229,0,0,0,28.76,5.7V3.9a1.672,1.672,0,0,0-1.67-1.67H25.045a1.152,1.152,0,0,0-1.15,1.15.447.447,0,0,1-.447.447H19.37a.557.557,0,1,0,0,1.113h4.078a1.562,1.562,0,0,0,1.56-1.56.037.037,0,0,1,.037-.037H27.09a.557.557,0,0,1,.557.557v2.24a6.952,6.952,0,0,0,0,12.55V34.1a.557.557,0,0,1-.557.557H10.91a.557.557,0,0,1-.557-.557V31.858A7.156,7.156,0,0,0,12.9,29.771a.557.557,0,1,0-.886-.674A6.125,6.125,0,0,1,7.157,31.49Zm22.716,2.985a2.415,2.415,0,0,1-2.412,2.412H10.539a2.415,2.415,0,0,1-2.412-2.412V32.537A7.267,7.267,0,0,0,9.24,32.3V34.1a1.672,1.672,0,0,0,1.67,1.67H27.09a1.672,1.672,0,0,0,1.67-1.67V19.124a7.22,7.22,0,0,0,1.113.239Zm.97-16.16a5.981,5.981,0,0,1-6.043-5.9,6.045,6.045,0,0,1,12.087,0A5.981,5.981,0,0,1,30.843,18.314Zm.821-8.978a.75.75,0,0,1,.675.805.557.557,0,0,0,1.113,0,1.859,1.859,0,0,0-1.788-1.919H31.4V7.748a.557.557,0,1,0-1.113,0v.475h-.264a1.859,1.859,0,0,0-1.788,1.919v.908a1.985,1.985,0,0,0,.5,1.337,1.718,1.718,0,0,0,1.284.582h.264v2.519h-.264a.75.75,0,0,1-.675-.805.557.557,0,0,0-1.113,0A1.859,1.859,0,0,0,30.022,16.6h.264v.475a.557.557,0,0,0,1.113,0V16.6h.265a1.859,1.859,0,0,0,1.788-1.919v-.908a1.985,1.985,0,0,0-.5-1.337,1.717,1.717,0,0,0-1.284-.582H31.4V9.336Zm-1.378,2.519h-.264a.618.618,0,0,1-.458-.216.874.874,0,0,1-.217-.59v-.908a.75.75,0,0,1,.675-.805h.264Zm1.378,1.113a.618.618,0,0,1,.458.216.874.874,0,0,1,.217.59v.908a.75.75,0,0,1-.675.805H31.4V12.969Z" transform="translate(6887.994 -4706)" fill="#b3b8bc"/>
  </g>
</svg>
