<svg xmlns="http://www.w3.org/2000/svg" xmlns:xlink="http://www.w3.org/1999/xlink" width="28" height="28" viewBox="0 0 28 28">
  <defs>
    <clipPath id="clip-path">
      <rect id="사각형_170" data-name="사각형 170" width="28" height="28" transform="translate(8417 -255)" fill="none" stroke="red" stroke-width="1"/>
    </clipPath>
    <clipPath id="clip-path-2">
      <rect id="사각형_73" data-name="사각형 73" width="24" height="24" transform="translate(2783 -1801.906)" fill="none" stroke="#707070" stroke-width="1"/>
    </clipPath>
  </defs>
  <g id="마스크_그룹_83" data-name="마스크 그룹 83" transform="translate(-8417 255)" clip-path="url(#clip-path)">
    <g id="마스크_그룹_34" data-name="마스크 그룹 34" transform="translate(5636 1548.906)" clip-path="url(#clip-path-2)">
      <path id="wine" d="M13.482,0H1.926A1.932,1.932,0,0,0,0,1.926V7.7a7.726,7.726,0,0,0,6.741,7.637v6.808H2.889v1.926h9.63V22.149H8.667V15.341A7.726,7.726,0,0,0,15.408,7.7V1.926A1.932,1.932,0,0,0,13.482,0Zm0,4.815V7.7a5.778,5.778,0,1,1-11.556,0V1.926H13.482Z" transform="translate(2787.359 -1801.981)" fill="#fff" fill-rule="evenodd"/>
    </g>
  </g>
</svg>
