<svg xmlns="http://www.w3.org/2000/svg" xmlns:xlink="http://www.w3.org/1999/xlink" width="38" height="38" viewBox="0 0 38 38">
  <defs>
    <clipPath id="clip-path">
      <rect id="사각형_44" data-name="사각형 44" width="38" height="38" transform="translate(7098 -4890)" fill="#fff" stroke="#707070" stroke-width="1" opacity="0.5"/>
    </clipPath>
  </defs>
  <g id="마스크_그룹_74" data-name="마스크 그룹 74" transform="translate(-7098 4890)" clip-path="url(#clip-path)">
    <g id="그룹_107" data-name="그룹 107" transform="translate(-0.173 40)">
      <rect id="사각형_142" data-name="사각형 142" width="37" height="37" transform="translate(7098.173 -4930)" fill="none"/>
      <g id="합치기_13" data-name="합치기 13" transform="translate(7109.855 -4920.62)" fill="none">
        <path d="M0,15.3A12.022,12.022,0,0,1,7.648,4.1V0h8.74V4.1A12.019,12.019,0,1,1,0,15.3Z" stroke="none"/>
        <path d="M 12.01766490936279 25.41358375549316 C 17.59656524658203 25.41358375549316 22.13533401489258 20.87482452392578 22.13533401489258 15.29592323303223 C 22.13533401489258 13.21864318847656 21.51127433776855 11.22338390350342 20.33062553405762 9.525823593139648 C 19.17526435852051 7.864633560180664 17.57302474975586 6.599313735961914 15.69712448120117 5.866663455963135 L 14.4883451461792 5.394553661346436 L 14.4883451461792 4.096853733062744 L 14.4883451461792 1.900003552436829 L 9.547965049743652 1.900003552436829 L 9.547965049743652 4.096463680267334 L 9.547965049743652 5.394293785095215 L 8.339015007019043 5.866333484649658 C 6.462894916534424 6.598873615264893 4.860465049743652 7.864173412322998 3.704944849014282 9.525433540344238 C 2.524144887924194 11.22306346893311 1.900004863739014 13.21846389770508 1.900004863739014 15.29592323303223 C 1.900004863739014 20.87482452392578 6.438765048980713 25.41358375549316 12.01766490936279 25.41358375549316 M 12.01766490936279 27.31358337402344 C 5.380515098571777 27.31358337402344 4.909362814942142e-06 21.93307304382324 4.909362814942142e-06 15.29592323303223 C 4.909362814942142e-06 10.19942378997803 3.171104907989502 5.844473361968994 7.647964954376221 4.096463680267334 L 7.647964954376221 3.594360350689385e-06 L 16.38834571838379 3.594360350689385e-06 L 16.38834571838379 4.096853733062744 C 20.86464500427246 5.845133781433105 24.03533554077148 10.19983386993408 24.03533554077148 15.29592323303223 C 24.03533554077148 21.93307304382324 18.65481567382813 27.31358337402344 12.01766490936279 27.31358337402344 Z" stroke="none" fill="#b3b8bc"/>
      </g>
      <path id="패스_164" data-name="패스 164" d="M6764.97-4779.451s1.2-5.176-5.436-5.176c0,0-3.453.042-3.453,5.35,0,0,.508,4.537-3.386,4.368,0,0-2.1.47-4.266-4.541" transform="translate(356.902 -140.75)" fill="none" stroke="#b3b8bc" stroke-width="1.9"/>
      <path id="패스_165" data-name="패스 165" d="M350.261,395.457h-3.142a1.607,1.607,0,1,1,0-3.213h1.133v3.213h.973v-3.213H351.9v-1.071h-2.678V390.1h-1.071v1.071h-1.036a2.678,2.678,0,1,0,0,5.355h1.133v3.213h.973v-3.213h1.036a1.607,1.607,0,1,1,0,3.213h-4.784v1.071h2.678v1.071h1.071v-1.071h1.036a2.678,2.678,0,0,0,0-5.355Zm0,0" transform="translate(6773.183 -5301.511)" fill="#b3b8bc" stroke="#b3b8bc" stroke-width="0.5"/>
      <rect id="사각형_144" data-name="사각형 144" width="1.905" height="3.268" transform="translate(7102.046 -4925.27) rotate(-30)" fill="#b3b8bc"/>
      <rect id="사각형_145" data-name="사각형 145" width="1.905" height="3.268" transform="matrix(0.259, -0.966, 0.966, 0.259, 7099.298, -4920.732)" fill="#b3b8bc"/>
      <rect id="사각형_147" data-name="사각형 147" width="1.905" height="3.268" transform="translate(7100.857 -4915.647) rotate(-120)" fill="#b3b8bc"/>
      <rect id="사각형_146" data-name="사각형 146" width="1.905" height="3.268" transform="matrix(0.966, 0.259, -0.259, 0.966, 7106.657, -4926.223)" fill="#b3b8bc"/>
    </g>
  </g>
</svg>
