<svg xmlns="http://www.w3.org/2000/svg" xmlns:xlink="http://www.w3.org/1999/xlink" width="38" height="38" viewBox="0 0 38 38">
  <defs>
    <clipPath id="clip-path">
      <rect id="사각형_44" data-name="사각형 44" width="38" height="38" transform="translate(7075 -4951)" fill="#fff" stroke="#707070" stroke-width="1" opacity="0.5"/>
    </clipPath>
  </defs>
  <g id="마스크_그룹_75" data-name="마스크 그룹 75" transform="translate(-7075 4951)" clip-path="url(#clip-path)">
    <path id="money" d="M12.452,9.251a2.467,2.467,0,0,1,.967.722,1.94,1.94,0,0,1,.39,1.262A2.242,2.242,0,0,1,13.1,12.9a3.458,3.458,0,0,1-2.048.86v1.326H9.865V13.8a6.479,6.479,0,0,1-1.67-.308,4.194,4.194,0,0,1-1.281-.64L7.566,11.4a4.317,4.317,0,0,0,1.056.557,4.832,4.832,0,0,0,1.244.284V10.265a8.938,8.938,0,0,1-1.421-.45,2.529,2.529,0,0,1-.973-.729A1.955,1.955,0,0,1,7.08,7.811,2.286,2.286,0,0,1,7.8,6.123a3.409,3.409,0,0,1,2.068-.861V3.947H11.05V5.24a5.193,5.193,0,0,1,2.4.723L12.862,7.42A4.707,4.707,0,0,0,11.05,6.8V8.817a8.514,8.514,0,0,1,1.4.433ZM11.05,12.2a1.27,1.27,0,0,0,.639-.307.694.694,0,0,0,.214-.508.616.616,0,0,0-.219-.486,1.956,1.956,0,0,0-.634-.331V12.2ZM9.865,6.839a1.293,1.293,0,0,0-.664.339.771.771,0,0,0-.213.539.608.608,0,0,0,.226.487,1.842,1.842,0,0,0,.651.319Z" transform="translate(7084.16 -4941.759)" fill="#b3b8bc" fill-rule="evenodd"/>
    <g id="refund" transform="translate(7078.561 -4946.276)">
      <g id="그룹_109" data-name="그룹 109" transform="translate(0 0)">
        <g id="그룹_108" data-name="그룹 108" transform="translate(0)">
          <path id="패스_176" data-name="패스 176" d="M30.987,42.263H29.771A14.087,14.087,0,0,0,17.022,31.075h-.046A14.1,14.1,0,0,0,1.932,43.759L.158,46.422a.936.936,0,0,0,.778,1.455H2.153l0,.013a14.1,14.1,0,0,0,27.835-1.509l1.774-2.663A.936.936,0,0,0,30.987,42.263ZM17.7,57.11a12.273,12.273,0,0,1-13.77-9.9c-.044-.245-.063-1.2-.99-1.2H2.683l1.993-2.992,1.995,2.994a.936.936,0,0,0-.853,1.12,10.368,10.368,0,0,0,19.966,1.177l.684,1.026a.935.935,0,0,0,.768.416A12.3,12.3,0,0,1,17.7,57.11Zm5.028-13.393,1.64,2.461a8.493,8.493,0,0,1-16.4,1.7h.451A.936.936,0,0,0,9.2,46.422l-1.64-2.462a8.494,8.494,0,0,1,16.4-1.7h-.452A.936.936,0,0,0,22.727,43.718Zm4.519,3.408-1.995-2.994a.936.936,0,0,0,.853-1.117h0v0A10.36,10.36,0,0,0,6.14,41.836l-.685-1.028a.935.935,0,0,0-.768-.416,12.233,12.233,0,0,1,23.277,2.381c.1.543.081.562.131.716l0,.008a.937.937,0,0,0,.888.636h.253Z" transform="translate(0 -31.038)" fill="#b3b8bc"/>
        </g>
      </g>
    </g>
    <rect id="사각형_153" data-name="사각형 153" width="32.469" height="32.485" transform="translate(7078 -4948.485)" fill="none"/>
  </g>
</svg>
